<?xml version="1.0" encoding="utf-8"?>
<!-- Generator: Adobe Illustrator 16.0.0, SVG Export Plug-In . SVG Version: 6.00 Build 0)  -->
<!DOCTYPE svg PUBLIC "-//W3C//DTD SVG 1.1//EN" "http://www.w3.org/Graphics/SVG/1.1/DTD/svg11.dtd">
<svg version="1.1" id="Layer_1" xmlns="http://www.w3.org/2000/svg" xmlns:xlink="http://www.w3.org/1999/xlink" x="0px" y="0px"
	 width="766.851px" height="125.722px" viewBox="0 0 766.851 125.722" enable-background="new 0 0 766.851 125.722"
	 xml:space="preserve">
<polygon fill="#464547" points="518.291,38.268 528.21,38.268 528.21,40.447 521.221,40.447 521.221,44.94 527.799,44.94 
	527.799,47.118 521.221,47.118 521.221,52.293 528.416,52.293 528.416,54.472 518.291,54.472 "/>
<polygon fill="#464547" points="536.176,38.268 539.105,38.268 539.105,52.293 546.198,52.293 546.198,54.472 536.176,54.472 "/>
<polygon fill="#464547" points="553.777,38.268 563.696,38.268 563.696,40.447 556.706,40.447 556.706,44.94 563.284,44.94 
	563.284,47.118 556.706,47.118 556.706,52.293 563.902,52.293 563.902,54.472 553.777,54.472 "/>
<g>
	<defs>
		<rect id="SVGID_1_" width="766.851" height="125.722"/>
	</defs>
	<clipPath id="SVGID_2_">
		<use xlink:href="#SVGID_1_"  overflow="visible"/>
	</clipPath>
	<path clip-path="url(#SVGID_2_)" fill="#464547" d="M583.276,48.662v0.341c0,2.927-1.362,5.786-5.653,5.786
		c-4.625,0-6.064-2.632-6.064-8.419c0-5.788,1.439-8.42,6.091-8.42c5.216,0,5.523,3.382,5.523,5.084v0.295h-2.929v-0.273
		c0-1.52-0.514-3.222-2.621-3.154c-2.184,0-3.135,1.181-3.135,6.4c0,5.219,0.951,6.536,3.135,6.536c2.467,0,2.725-2.383,2.725-3.904
		v-0.272H583.276z"/>
	<polygon clip-path="url(#SVGID_2_)" fill="#464547" points="594.197,40.447 589.829,40.447 589.829,38.268 601.417,38.268 
		601.417,40.447 597.126,40.447 597.126,54.472 594.197,54.472 	"/>
	<path clip-path="url(#SVGID_2_)" fill="#464547" d="M608.948,38.268h6.476c2.568,0,4.65,1.158,4.65,4.176
		c0,2.089-1.028,3.699-3.058,3.972v0.046c1.85,0.158,2.774,1.043,2.877,3.312c0.026,1.067,0.026,2.316,0.103,3.291
		c0.078,0.795,0.489,1.158,0.874,1.407h-3.315c-0.281-0.295-0.411-0.794-0.486-1.43c-0.052-0.477-0.077-0.976-0.077-1.452
		c0-0.477-0.026-1.021-0.052-1.611c-0.077-1.771-0.693-2.542-2.674-2.542h-2.389v7.035h-2.929V38.268z M614.216,45.485
		c1.875,0,2.928-0.999,2.928-2.633c0-1.724-0.821-2.633-2.774-2.633h-2.492v5.266H614.216z"/>
	<path clip-path="url(#SVGID_2_)" fill="#464547" d="M628.168,46.37c0-5.787,1.85-8.419,6.064-8.419
		c4.213,0,6.063,2.632,6.063,8.419c0,5.787-1.851,8.419-6.063,8.419C630.018,54.789,628.168,52.157,628.168,46.37 M637.367,46.302
		c0-5.447-1.389-6.4-3.135-6.4c-1.748,0-3.136,0.953-3.136,6.4c0,5.56,1.388,6.536,3.136,6.536
		C635.979,52.838,637.367,51.862,637.367,46.302"/>
	<polygon clip-path="url(#SVGID_2_)" fill="#464547" points="648.75,38.268 652.322,38.268 657.642,50.342 657.693,50.342 
		657.693,38.268 660.469,38.268 660.469,54.472 656.896,54.472 651.576,42.081 651.526,42.081 651.526,54.472 648.75,54.472 	"/>
	<rect x="669.231" y="38.268" clip-path="url(#SVGID_2_)" fill="#464547" width="2.929" height="16.204"/>
	<path clip-path="url(#SVGID_2_)" fill="#464547" d="M692.202,48.662v0.341c0,2.927-1.362,5.786-5.653,5.786
		c-4.625,0-6.064-2.632-6.064-8.419c0-5.788,1.439-8.42,6.091-8.42c5.216,0,5.524,3.382,5.524,5.084v0.295h-2.931v-0.273
		c0-1.52-0.513-3.222-2.62-3.154c-2.184,0-3.135,1.181-3.135,6.4c0,5.219,0.951,6.536,3.135,6.536c2.468,0,2.725-2.383,2.725-3.904
		v-0.272H692.202z"/>
	<path clip-path="url(#SVGID_2_)" fill="#464547" d="M702.379,49.456v0.409c0,1.973,1,2.973,3.007,2.973
		c1.822,0,2.774-1.18,2.774-2.361c0-1.702-0.977-2.45-2.622-2.882l-2.004-0.613c-2.673-0.908-3.829-2.133-3.829-4.447
		c0-2.951,2.288-4.585,5.704-4.585c4.703,0,5.192,2.588,5.192,4.267v0.363h-2.93v-0.34c0-1.475-0.72-2.338-2.57-2.338
		c-1.259,0-2.466,0.612-2.466,2.338c0,1.384,0.796,2.087,2.75,2.745l1.978,0.636c2.594,0.817,3.727,2.043,3.727,4.289
		c0,3.45-2.365,4.879-6.065,4.879c-4.548,0-5.575-2.678-5.575-4.946v-0.387H702.379z"/>
	<polygon clip-path="url(#SVGID_2_)" fill="#464547" points="518.291,69.079 521.221,69.079 521.221,75.569 526.617,75.569 
		526.617,69.079 529.546,69.079 529.546,85.283 526.617,85.283 526.617,77.749 521.221,77.749 521.221,85.283 518.291,85.283 	"/>
	<path clip-path="url(#SVGID_2_)" fill="#464547" d="M538.001,77.181c0-5.786,1.851-8.419,6.065-8.419
		c4.213,0,6.063,2.633,6.063,8.419c0,5.787-1.85,8.419-6.063,8.419C539.852,85.6,538.001,82.968,538.001,77.181 M547.2,77.113
		c0-5.447-1.388-6.399-3.134-6.399c-1.748,0-3.137,0.952-3.137,6.399c0,5.561,1.389,6.536,3.137,6.536
		C545.813,83.649,547.2,82.673,547.2,77.113"/>
	<polygon clip-path="url(#SVGID_2_)" fill="#464547" points="558.583,69.079 563.157,69.079 566.394,81.085 566.446,81.085 
		569.632,69.079 574.104,69.079 574.104,85.283 571.328,85.283 571.328,71.802 571.275,71.802 567.576,85.283 565.108,85.283 
		561.409,71.802 561.358,71.802 561.358,85.283 558.583,85.283 	"/>
	<polygon clip-path="url(#SVGID_2_)" fill="#464547" points="582.995,69.079 592.914,69.079 592.914,71.258 585.924,71.258 
		585.924,75.752 592.502,75.752 592.502,77.931 585.924,77.931 585.924,83.104 593.12,83.104 593.12,85.283 582.995,85.283 	"/>
	<path clip-path="url(#SVGID_2_)" fill="#464547" d="M615.758,69.079h3.752l4.83,16.204h-3.059l-1.131-3.972h-5.37l-1.182,3.972
		h-3.058L615.758,69.079z M619.662,79.246l-2.105-7.987h-0.052l-2.185,7.987H619.662z"/>
	<path clip-path="url(#SVGID_2_)" fill="#464547" d="M631.483,69.08h5.808c3.521,0,5.062,1.952,5.062,4.72
		c0,2.905-1.952,4.788-5.37,4.788h-2.569v6.696h-2.93V69.08z M634.413,76.636h2.081c1.567,0,2.93-0.726,2.93-2.791
		c0-1.748-0.797-2.813-3.135-2.813h-1.876V76.636z"/>
	<path clip-path="url(#SVGID_2_)" fill="#464547" d="M650.19,69.08h5.807c3.521,0,5.063,1.952,5.063,4.72
		c0,2.905-1.952,4.788-5.37,4.788h-2.57v6.696h-2.929V69.08z M653.119,76.636h2.081c1.568,0,2.931-0.726,2.931-2.791
		c0-1.748-0.797-2.813-3.136-2.813h-1.876V76.636z"/>
	<polygon clip-path="url(#SVGID_2_)" fill="#464547" points="668.563,69.079 671.492,69.079 671.492,83.104 678.585,83.104 
		678.585,85.283 668.563,85.283 	"/>
	<rect x="686.038" y="69.08" clip-path="url(#SVGID_2_)" fill="#464547" width="2.928" height="16.203"/>
	<path clip-path="url(#SVGID_2_)" fill="#464547" d="M701.197,69.079h3.753l4.829,16.204h-3.058l-1.131-3.972h-5.37l-1.182,3.972
		h-3.058L701.197,69.079z M705.103,79.246l-2.106-7.987h-0.052l-2.184,7.987H705.103z"/>
	<polygon clip-path="url(#SVGID_2_)" fill="#464547" points="716.923,69.079 720.494,69.079 725.813,81.153 725.865,81.153 
		725.865,69.079 728.641,69.079 728.641,85.283 725.067,85.283 719.748,72.892 719.698,72.892 719.698,85.283 716.923,85.283 	"/>
	<path clip-path="url(#SVGID_2_)" fill="#464547" d="M748.813,79.473v0.341c0,2.927-1.362,5.786-5.653,5.786
		c-4.625,0-6.065-2.632-6.065-8.419c0-5.786,1.44-8.42,6.092-8.42c5.216,0,5.523,3.382,5.523,5.084v0.295h-2.93v-0.273
		c0-1.52-0.514-3.222-2.62-3.153c-2.184,0-3.135,1.181-3.135,6.399c0,5.22,0.951,6.536,3.135,6.536c2.467,0,2.724-2.383,2.724-3.902
		v-0.273H748.813z"/>
	<polygon clip-path="url(#SVGID_2_)" fill="#464547" points="756.727,69.079 766.646,69.079 766.646,71.258 759.655,71.258 
		759.655,75.752 766.233,75.752 766.233,77.931 759.655,77.931 759.655,83.104 766.852,83.104 766.852,85.283 756.727,85.283 	"/>
	<polygon clip-path="url(#SVGID_2_)" fill="#464547" points="518.291,99.89 528.081,99.89 528.081,102.069 521.221,102.069 
		521.221,106.562 527.671,106.562 527.671,108.74 521.221,108.74 521.221,116.094 518.291,116.094 	"/>
	<path clip-path="url(#SVGID_2_)" fill="#464547" d="M538.746,99.89v11.619c0,2.064,0.924,2.951,2.697,2.951
		c1.747,0,2.673-0.887,2.673-2.951V99.89h2.93v11.415c0,3.745-2.107,5.105-5.603,5.105c-3.52,0-5.627-1.36-5.627-5.105V99.89
		H538.746z"/>
	<path clip-path="url(#SVGID_2_)" fill="#464547" d="M555.705,99.889h6.477c2.567,0,4.649,1.158,4.649,4.177
		c0,2.089-1.027,3.698-3.057,3.972v0.046c1.849,0.158,2.774,1.043,2.877,3.313c0.026,1.066,0.026,2.315,0.103,3.291
		c0.077,0.795,0.488,1.157,0.874,1.406h-3.315c-0.282-0.295-0.411-0.794-0.487-1.43c-0.051-0.477-0.077-0.976-0.077-1.452
		s-0.025-1.021-0.052-1.611c-0.077-1.771-0.692-2.542-2.673-2.542h-2.389v7.035h-2.93V99.889z M560.974,107.108
		c1.875,0,2.928-0.999,2.928-2.634c0-1.724-0.822-2.633-2.774-2.633h-2.492v5.267H560.974z"/>
	<polygon clip-path="url(#SVGID_2_)" fill="#464547" points="575.363,99.89 578.935,99.89 584.254,111.964 584.306,111.964 
		584.306,99.89 587.081,99.89 587.081,116.094 583.509,116.094 578.188,103.703 578.139,103.703 578.139,116.094 575.363,116.094 	
		"/>
	<rect x="595.843" y="99.89" clip-path="url(#SVGID_2_)" fill="#464547" width="2.929" height="16.204"/>
	<polygon clip-path="url(#SVGID_2_)" fill="#464547" points="610.541,102.069 606.173,102.069 606.173,99.89 617.761,99.89 
		617.761,102.069 613.47,102.069 613.47,116.093 610.541,116.093 	"/>
	<path clip-path="url(#SVGID_2_)" fill="#464547" d="M627.988,99.89v11.619c0,2.064,0.925,2.951,2.697,2.951
		c1.748,0,2.673-0.887,2.673-2.951V99.89h2.93v11.415c0,3.745-2.106,5.105-5.603,5.105c-3.52,0-5.626-1.36-5.626-5.105V99.89
		H627.988z"/>
	<path clip-path="url(#SVGID_2_)" fill="#464547" d="M644.947,99.889h6.477c2.568,0,4.649,1.158,4.649,4.177
		c0,2.089-1.026,3.698-3.057,3.972v0.046c1.849,0.158,2.775,1.043,2.878,3.313c0.025,1.066,0.025,2.315,0.103,3.291
		c0.076,0.795,0.487,1.157,0.873,1.406h-3.314c-0.283-0.295-0.412-0.794-0.488-1.43c-0.051-0.477-0.077-0.976-0.077-1.452
		s-0.025-1.021-0.052-1.611c-0.077-1.771-0.692-2.542-2.672-2.542h-2.39v7.035h-2.93V99.889z M650.215,107.108
		c1.876,0,2.929-0.999,2.929-2.634c0-1.724-0.822-2.633-2.773-2.633h-2.493v5.267H650.215z"/>
	<polygon clip-path="url(#SVGID_2_)" fill="#464547" points="664.604,99.89 674.523,99.89 674.523,102.069 667.533,102.069 
		667.533,106.562 674.111,106.562 674.111,108.74 667.533,108.74 667.533,113.916 674.729,113.916 674.729,116.094 664.604,116.094 
			"/>
	<path clip-path="url(#SVGID_2_)" fill="#464547" d="M685.085,111.079v0.408c0,1.974,1.001,2.974,3.008,2.974
		c1.822,0,2.773-1.181,2.773-2.361c0-1.702-0.976-2.45-2.621-2.882l-2.004-0.613c-2.673-0.908-3.829-2.133-3.829-4.446
		c0-2.951,2.288-4.585,5.704-4.585c4.703,0,5.192,2.588,5.192,4.267v0.363h-2.931v-0.341c0-1.475-0.719-2.338-2.569-2.338
		c-1.259,0-2.466,0.612-2.466,2.338c0,1.385,0.796,2.088,2.75,2.745l1.978,0.637c2.594,0.816,3.727,2.043,3.727,4.289
		c0,3.449-2.365,4.879-6.065,4.879c-4.548,0-5.575-2.679-5.575-4.946v-0.387H685.085z"/>
	<rect x="487.221" y="39.349" clip-path="url(#SVGID_2_)" fill="#464547" width="1.199" height="78.443"/>
	<polygon clip-path="url(#SVGID_2_)" fill="#721549" points="163.433,81.627 184.818,38.609 202.167,38.609 171.83,96.476 
		155.084,96.476 124.747,38.609 142.019,38.609 	"/>
	<rect x="210.188" y="38.532" clip-path="url(#SVGID_2_)" fill="#721549" width="15.008" height="58.019"/>
	<path clip-path="url(#SVGID_2_)" fill="#721549" d="M289.469,96.475l-17.325-17.716c-0.317-0.317-0.615-0.631-0.891-0.938
		c-0.034,0.034-0.068,0.067-0.103,0.103c-0.773,0.773-1.776,1.751-3.012,2.936c-1.23,1.178-2.577,2.447-4.038,3.807
		c-1.454,1.354-4.427,4.136-4.427,4.136s-3.559,3.348-3.785,3.562v4.111h-15.009V38.533h15.009v33.604
		c0.181-0.19,0.364-0.379,0.551-0.565l33.039-33.039h20.527l-27.356,27.355c-0.427,0.428-0.89,0.865-1.393,1.315
		c-0.129,0.115-0.26,0.231-0.394,0.347c0.043,0.037,0.087,0.073,0.131,0.11c0.501,0.424,1.037,0.894,1.61,1.414l27.402,27.4H289.469
		z"/>
	<polygon clip-path="url(#SVGID_2_)" fill="#721549" points="329.754,96.475 312.397,96.475 342.736,38.609 359.48,38.609 
		389.817,96.475 372.538,96.475 351.089,53.707 	"/>
	<path clip-path="url(#SVGID_2_)" fill="#721549" d="M398.796,96.475l-6.951-15.009h44.478c1.273,0,2.322-0.3,3.207-0.918
		c0.747-0.519,1.095-1.229,1.095-2.233c0-1.016-0.366-1.755-1.154-2.328c-0.906-0.658-1.936-0.979-3.147-0.979h-21.928
		c-2.977,0-5.798-0.392-8.383-1.166c-2.621-0.783-4.946-1.968-6.91-3.521c-1.981-1.569-3.559-3.509-4.687-5.766
		c-1.132-2.265-1.707-4.911-1.707-7.862c0-2.899,0.575-5.519,1.707-7.786c1.132-2.262,2.715-4.18,4.705-5.701
		c1.956-1.494,4.275-2.649,6.893-3.431c2.589-0.774,5.408-1.166,8.382-1.166h39.245v15.008h-41.238c-1.407,0-2.516,0.326-3.39,0.998
		c-0.779,0.597-1.142,1.306-1.142,2.232c0,0.922,0.349,1.618,1.099,2.19c0.837,0.638,1.992,0.962,3.433,0.962h21.62
		c3.19,0,6.164,0.447,8.839,1.33c2.696,0.89,5.068,2.167,7.049,3.794c1.995,1.64,3.576,3.598,4.702,5.82
		c1.137,2.246,1.712,4.725,1.712,7.371c0,2.954-0.591,5.603-1.754,7.873c-1.156,2.262-2.779,4.179-4.824,5.7
		c-2.01,1.492-4.392,2.645-7.082,3.425c-2.661,0.771-5.568,1.162-8.642,1.162H398.796z"/>
	<polygon clip-path="url(#SVGID_2_)" fill="#CE2452" points="225.197,25.767 210.188,31.305 210.188,16.289 225.205,16.289 	"/>
	<polygon clip-path="url(#SVGID_2_)" fill="#CE2452" points="87.569,6.089 48.101,75.972 21.286,31.018 48.424,30.986 
		61.821,30.964 61.833,30.964 74.167,9.446 78.895,9.878 71.929,0 56.74,7.852 61.423,8.28 55.129,19.087 0,19.087 49.017,100.544 
		97.549,17.988 113.36,17.988 57.188,114.804 63.763,125.722 135.034,6.089 	"/>
	<polygon clip-path="url(#SVGID_2_)" fill="#686868" points="128.357,120.473 126.376,120.473 126.376,108.734 129.466,108.734 
		133.009,116.106 136.551,108.734 139.624,108.734 139.624,120.473 137.643,120.473 137.643,111.304 133.546,119.449 
		132.438,119.449 128.357,111.304 	"/>
	<path clip-path="url(#SVGID_2_)" fill="#686868" d="M157.239,120.473h-1.713v-1.192c-0.739,0.883-1.73,1.326-2.972,1.326
		c-0.93,0-1.699-0.263-2.309-0.79c-0.611-0.524-0.915-1.227-0.915-2.106c0-0.879,0.324-1.535,0.974-1.974
		c0.649-0.436,1.528-0.654,2.636-0.654h2.434v-0.336c0-1.187-0.66-1.778-1.981-1.778c-0.829,0-1.69,0.302-2.585,0.905l-0.84-1.176
		c1.085-0.861,2.317-1.293,3.694-1.293c1.052,0,1.912,0.267,2.577,0.798c0.666,0.532,1,1.369,1,2.511V120.473z M155.358,117.148
		v-0.755h-2.116c-1.355,0-2.032,0.425-2.032,1.276c0,0.436,0.169,0.769,0.504,0.997c0.336,0.23,0.803,0.346,1.402,0.346
		c0.599,0,1.122-0.168,1.57-0.504C155.134,118.173,155.358,117.718,155.358,117.148"/>
	<polygon clip-path="url(#SVGID_2_)" fill="#686868" points="169.127,120.473 167.247,120.473 167.247,108.013 169.127,108.013 
		169.127,115.333 172.754,111.539 175.172,111.539 171.78,115.083 175.424,120.473 173.141,120.473 170.487,116.56 169.127,117.937 
			"/>
	<path clip-path="url(#SVGID_2_)" fill="#686868" d="M184.508,109.759c-0.234-0.235-0.352-0.514-0.352-0.84
		c0-0.324,0.118-0.604,0.352-0.838c0.236-0.236,0.515-0.354,0.84-0.354c0.325,0,0.605,0.118,0.839,0.354
		c0.236,0.233,0.353,0.514,0.353,0.838c0,0.326-0.117,0.604-0.353,0.84c-0.234,0.236-0.514,0.353-0.839,0.353
		C185.023,110.112,184.744,109.996,184.508,109.759 M186.272,120.473h-1.881v-8.935h1.881V120.473z"/>
	<path clip-path="url(#SVGID_2_)" fill="#686868" d="M198.261,115.636v4.837h-1.881v-8.935h1.881v1.63
		c0.302-0.549,0.719-0.979,1.251-1.293c0.531-0.313,1.105-0.471,1.721-0.471c1.007,0,1.822,0.308,2.443,0.923
		c0.621,0.616,0.932,1.507,0.932,2.671v5.475h-1.881v-4.903c0-1.646-0.683-2.469-2.048-2.469c-0.649,0-1.215,0.216-1.696,0.646
		C198.501,114.179,198.261,114.809,198.261,115.636"/>
	<path clip-path="url(#SVGID_2_)" fill="#686868" d="M222.877,111.539v7.792c0,1.578-0.428,2.763-1.285,3.551
		c-0.857,0.789-1.956,1.186-3.299,1.186c-1.344,0-2.558-0.42-3.644-1.261l0.889-1.427c0.874,0.661,1.756,0.991,2.645,0.991
		c0.89,0,1.596-0.229,2.116-0.689c0.521-0.459,0.781-1.191,0.781-2.198v-1.143c-0.28,0.526-0.68,0.945-1.201,1.259
		c-0.52,0.314-1.105,0.472-1.754,0.472c-1.187,0-2.161-0.415-2.922-1.244c-0.761-0.827-1.142-1.858-1.142-3.09
		c0-1.23,0.381-2.262,1.142-3.089c0.761-0.828,1.732-1.243,2.913-1.243c1.181,0,2.141,0.487,2.88,1.462v-1.328H222.877z
		 M215.909,115.662c0,0.733,0.227,1.366,0.68,1.897c0.454,0.531,1.063,0.798,1.831,0.798c0.766,0,1.388-0.257,1.863-0.772
		c0.476-0.515,0.714-1.156,0.714-1.923c0-0.766-0.241-1.415-0.722-1.947c-0.481-0.531-1.103-0.799-1.864-0.799
		c-0.761,0-1.368,0.275-1.822,0.824C216.136,114.288,215.909,114.928,215.909,115.662"/>
	<path clip-path="url(#SVGID_2_)" fill="#686868" d="M252.212,120.473H250.5v-1.192c-0.739,0.883-1.73,1.326-2.972,1.326
		c-0.93,0-1.699-0.263-2.309-0.79c-0.611-0.524-0.915-1.227-0.915-2.106c0-0.879,0.324-1.535,0.974-1.974
		c0.649-0.436,1.528-0.654,2.636-0.654h2.434v-0.336c0-1.187-0.66-1.778-1.981-1.778c-0.829,0-1.69,0.302-2.585,0.905l-0.84-1.176
		c1.085-0.861,2.317-1.293,3.694-1.293c1.052,0,1.912,0.267,2.577,0.798c0.666,0.532,1,1.369,1,2.511V120.473z M250.331,117.148
		v-0.755h-2.116c-1.355,0-2.032,0.425-2.032,1.276c0,0.436,0.169,0.769,0.504,0.997c0.336,0.23,0.803,0.346,1.402,0.346
		s1.122-0.168,1.57-0.504C250.107,118.173,250.331,117.718,250.331,117.148"/>
	<path clip-path="url(#SVGID_2_)" fill="#686868" d="M279.615,120.473h-5.138v-11.738h4.567c0.795,0,1.481,0.096,2.057,0.286
		c0.577,0.19,1.005,0.446,1.285,0.772c0.537,0.604,0.806,1.287,0.806,2.048c0,0.918-0.291,1.603-0.873,2.049
		c-0.213,0.157-0.359,0.256-0.437,0.293c-0.078,0.04-0.218,0.104-0.42,0.194c0.728,0.157,1.307,0.484,1.738,0.982
		c0.431,0.499,0.647,1.117,0.647,1.854c0,0.818-0.28,1.539-0.84,2.167C282.346,120.109,281.216,120.473,279.615,120.473
		 M276.458,113.605h2.519c1.433,0,2.149-0.487,2.149-1.46c0-0.561-0.173-0.964-0.52-1.211c-0.347-0.245-0.885-0.367-1.612-0.367
		h-2.536V113.605z M276.458,118.642h3.107c0.727,0,1.284-0.114,1.671-0.344c0.386-0.229,0.579-0.664,0.579-1.302
		c0-1.041-0.834-1.563-2.502-1.563h-2.855V118.642z"/>
	<path clip-path="url(#SVGID_2_)" fill="#686868" d="M301.764,116.829h-7.002c0.044,0.649,0.341,1.174,0.89,1.57
		c0.548,0.397,1.176,0.597,1.881,0.597c1.119,0,1.97-0.354,2.552-1.059l1.075,1.175c-0.963,0.997-2.217,1.495-3.762,1.495
		c-1.254,0-2.32-0.417-3.199-1.251c-0.878-0.834-1.318-1.954-1.318-3.357c0-1.405,0.448-2.522,1.343-3.351
		c0.896-0.828,1.951-1.243,3.166-1.243c1.214,0,2.247,0.367,3.098,1.101c0.85,0.732,1.276,1.744,1.276,3.03V116.829z
		 M294.762,115.351h5.121c0-0.75-0.235-1.327-0.705-1.729c-0.47-0.403-1.049-0.604-1.738-0.604s-1.307,0.21-1.855,0.63
		C295.036,114.066,294.762,114.635,294.762,115.351"/>
	<path clip-path="url(#SVGID_2_)" fill="#686868" d="M313.468,113.05v4.534c0,0.426,0.112,0.765,0.336,1.017
		c0.224,0.251,0.537,0.378,0.94,0.378s0.79-0.197,1.159-0.588l0.773,1.325c-0.662,0.595-1.392,0.891-2.192,0.891
		c-0.8,0-1.483-0.276-2.049-0.832c-0.565-0.552-0.848-1.3-0.848-2.241v-4.483h-1.125v-1.512h1.125v-2.804h1.881v2.804h2.351v1.512
		H313.468z"/>
	<path clip-path="url(#SVGID_2_)" fill="#686868" d="M327.875,113.05v4.534c0,0.426,0.112,0.765,0.336,1.017
		c0.224,0.251,0.537,0.378,0.94,0.378c0.403,0,0.79-0.197,1.159-0.588l0.773,1.325c-0.662,0.595-1.392,0.891-2.192,0.891
		s-1.483-0.276-2.049-0.832c-0.565-0.552-0.848-1.3-0.848-2.241v-4.483h-1.125v-1.512h1.125v-2.804h1.881v2.804h2.351v1.512H327.875
		z"/>
	<path clip-path="url(#SVGID_2_)" fill="#686868" d="M348.277,116.829h-7.002c0.045,0.649,0.341,1.174,0.89,1.57
		c0.548,0.397,1.176,0.597,1.881,0.597c1.119,0,1.97-0.354,2.552-1.059l1.075,1.175c-0.963,0.997-2.217,1.495-3.762,1.495
		c-1.254,0-2.32-0.417-3.199-1.251c-0.878-0.834-1.318-1.954-1.318-3.357c0-1.405,0.448-2.522,1.343-3.351
		c0.896-0.828,1.951-1.243,3.166-1.243c1.214,0,2.247,0.367,3.098,1.101c0.85,0.732,1.276,1.744,1.276,3.03V116.829z
		 M341.275,115.351h5.121c0-0.75-0.235-1.327-0.705-1.729c-0.47-0.403-1.049-0.604-1.738-0.604c-0.689,0-1.307,0.21-1.855,0.63
		C341.549,114.066,341.275,114.635,341.275,115.351"/>
	<path clip-path="url(#SVGID_2_)" fill="#686868" d="M362.416,113.302c-0.929,0-1.629,0.303-2.099,0.907
		c-0.47,0.604-0.705,1.417-0.705,2.436v3.828h-1.881v-8.935h1.881v1.797c0.302-0.559,0.713-1.018,1.234-1.376
		c0.521-0.357,1.072-0.543,1.654-0.555l0.017,1.897H362.416z"/>
	<polygon clip-path="url(#SVGID_2_)" fill="#686868" points="384.043,120.473 384.043,108.734 386.023,108.734 386.023,113.823 
		391.851,113.823 391.851,108.734 393.832,108.734 393.832,120.473 391.851,120.473 391.851,115.671 386.023,115.671 
		386.023,120.473 	"/>
	<path clip-path="url(#SVGID_2_)" fill="#686868" d="M411.682,119.271c-0.896,0.891-2.015,1.336-3.358,1.336
		c-1.343,0-2.462-0.445-3.358-1.336c-0.896-0.89-1.343-1.977-1.343-3.265s0.447-2.376,1.343-3.266
		c0.896-0.891,2.016-1.336,3.358-1.336c1.344,0,2.463,0.445,3.358,1.336c0.896,0.89,1.344,1.978,1.344,3.266
		S412.577,118.381,411.682,119.271 M406.3,118.115c0.532,0.542,1.206,0.813,2.023,0.813c0.816,0,1.492-0.271,2.023-0.813
		c0.532-0.544,0.798-1.246,0.798-2.108s-0.266-1.565-0.798-2.107c-0.531-0.543-1.207-0.814-2.023-0.814
		c-0.817,0-1.491,0.271-2.023,0.814c-0.531,0.542-0.798,1.245-0.798,2.107S405.769,117.571,406.3,118.115"/>
	<path clip-path="url(#SVGID_2_)" fill="#686868" d="M424.427,115.636v4.837h-1.881v-8.935h1.881v1.63
		c0.268-0.549,0.674-0.979,1.217-1.293s1.128-0.471,1.755-0.471c1.41,0,2.367,0.582,2.872,1.747
		c0.883-1.165,1.986-1.747,3.307-1.747c1.009,0,1.822,0.308,2.444,0.923c0.621,0.616,0.931,1.507,0.931,2.671v5.475h-1.88v-4.903
		c0-1.646-0.683-2.469-2.049-2.469c-0.638,0-1.195,0.204-1.671,0.613c-0.476,0.408-0.725,1.005-0.747,1.787v4.972h-1.88v-4.903
		c0-0.851-0.151-1.475-0.454-1.872c-0.302-0.398-0.778-0.597-1.427-0.597c-0.649,0-1.215,0.216-1.696,0.646
		C424.668,114.179,424.427,114.809,424.427,115.636"/>
	<path clip-path="url(#SVGID_2_)" fill="#686868" d="M455.272,116.829h-7.002c0.045,0.649,0.341,1.174,0.89,1.57
		c0.549,0.397,1.177,0.597,1.882,0.597c1.118,0,1.97-0.354,2.552-1.059l1.075,1.175c-0.963,0.997-2.218,1.495-3.763,1.495
		c-1.254,0-2.319-0.417-3.198-1.251c-0.878-0.834-1.317-1.954-1.317-3.357c0-1.405,0.447-2.522,1.342-3.351
		c0.896-0.828,1.951-1.243,3.166-1.243c1.214,0,2.247,0.367,3.098,1.101c0.851,0.732,1.276,1.744,1.276,3.03V116.829z
		 M448.271,115.351h5.122c0-0.75-0.236-1.327-0.706-1.729c-0.47-0.403-1.049-0.604-1.738-0.604c-0.688,0-1.307,0.21-1.854,0.63
		C448.545,114.066,448.271,114.635,448.271,115.351"/>
</g>
</svg>
