<?xml version="1.0" encoding="utf-8"?>
<!-- Generator: Adobe Illustrator 23.0.1, SVG Export Plug-In . SVG Version: 6.00 Build 0)  -->
<svg version="1.1" id="Layer_1" xmlns="http://www.w3.org/2000/svg" xmlns:xlink="http://www.w3.org/1999/xlink" x="0px" y="0px"
	 viewBox="0 0 623.33 339.51" style="enable-background:new 0 0 623.33 339.51;" xml:space="preserve">
<style type="text/css">
	.st0{fill:#F41251;}
</style>
<g>
	<path class="st0" d="M49.1,195.48c-3.42-2-8.86-3.02-16.18-3.02H14.78c-2.95,0-5.19-0.12-6.66-0.36c-1.39-0.23-2.43-0.67-3.09-1.3
		c-0.66-0.64-1.16-1.68-1.48-3.07l-0.09-0.39H1.01l0.06,0.55c0.14,1.43,0.22,3.42,0.22,5.92c0,3.4-0.07,6.1-0.22,8.04l-0.04,0.54
		H3.5l0.06-0.43c0.33-2.22,0.86-3.81,1.57-4.72c0.69-0.88,1.79-1.46,3.27-1.71c1.58-0.27,4.23-0.41,7.88-0.41h17.47
		c6.12,0,10.89,0.94,14.16,2.8c3.23,1.83,4.79,4.87,4.79,9.28c0,1.96-0.38,3.57-1.14,4.8c-0.74,1.21-2.02,2.13-3.79,2.74
		c-1.83,0.63-4.38,0.96-7.56,0.96H9.53c-1.82,0-3.15-0.14-3.95-0.41c-0.72-0.25-1.2-0.68-1.46-1.33c-0.29-0.73-0.48-1.94-0.55-3.61
		l-0.02-0.48H1.04l0.03,0.52c0.15,2.92,0.22,7.25,0.22,12.87c0,5.71-0.07,9.96-0.22,12.62l-0.03,0.53h2.51l0.02-0.48
		c0.07-1.47,0.25-2.53,0.54-3.15c0.26-0.55,0.72-0.91,1.43-1.12c0.8-0.23,2.14-0.35,3.99-0.35h23.6c3.36,0,6.25-0.16,8.58-0.48
		c2.37-0.32,4.48-0.93,6.28-1.8c1.83-0.89,3.38-2.17,4.63-3.82c2.48-3.31,3.73-7.96,3.73-13.83
		C56.36,203.58,53.91,198.24,49.1,195.48z"/>
	<path class="st0" d="M55.3,156.77h-2.74v0.5c0,2.29-0.15,3.97-0.46,5.01c-0.28,0.95-0.81,1.58-1.64,1.93
		c-0.9,0.38-2.38,0.58-4.41,0.58H33.78v-2.17c0-5.77-0.87-10.47-2.58-13.99c-1.73-3.54-3.92-6.09-6.54-7.56
		c-2.6-1.46-5.35-2.21-8.19-2.21c-3.05,0-5.77,0.84-8.07,2.5c-2.3,1.66-4.1,4.18-5.37,7.5c-1.25,3.29-1.89,7.39-1.89,12.18
		c0,0.92,0.03,2.58,0.07,5c0.05,2.41,0.07,4.6,0.07,6.56c0,5.5-0.07,9.66-0.22,12.38l-0.03,0.53h2.51l0.02-0.48
		c0.07-1.45,0.25-2.51,0.54-3.14c0.26-0.56,0.73-0.94,1.45-1.15c0.81-0.24,2.14-0.37,3.97-0.37h37.3c1.83,0,3.17,0.12,3.97,0.35
		c0.72,0.21,1.19,0.58,1.45,1.13c0.29,0.63,0.47,1.7,0.54,3.17l0.02,0.48h2.49l-0.01-0.51c-0.15-8.01-0.22-12.11-0.22-12.89
		c0-3.37,0.07-8.36,0.22-14.82L55.3,156.77z M31.28,163.31v1.47H9.53c-1.74,0-3.06-0.1-3.93-0.29c-0.77-0.17-1.3-0.47-1.58-0.91
		c-0.3-0.47-0.45-1.21-0.45-2.21c0-2.29,1.03-3.88,3.16-4.87c2.22-1.03,5.77-1.55,10.55-1.55c4.36,0,7.85,0.62,10.37,1.85
		C30.09,157.99,31.28,160.12,31.28,163.31z"/>
	<path class="st0" d="M55.29,115.97c-0.15-6.46-0.22-11.43-0.22-14.78c0-3.72,0.07-9.02,0.22-15.77l0.01-0.51h-2.52v0.5
		c0,2.28-0.15,3.96-0.46,4.99c-0.28,0.94-0.81,1.56-1.63,1.91c-0.89,0.38-2.36,0.57-4.39,0.57H3.8c0.14-2.56,1.54-5,4.16-7.25
		c2.83-2.43,7.54-4.45,14.02-5.99l0.38-0.09v-2.6l-0.55,0.06c-1.27,0.14-3.07,0.21-5.34,0.21c-4.35,0-9.35-0.17-14.87-0.49
		l-0.55-0.03l0.02,0.55c0.15,4.51,0.22,12.39,0.22,23.42c0,11.08-0.07,18.99-0.22,23.52l-0.02,0.55l0.55-0.03
		c5.52-0.33,10.53-0.49,14.87-0.49c2.27,0,4.07,0.07,5.34,0.21l0.55,0.06v-2.6l-0.38-0.09c-6.52-1.57-11.25-3.58-14.05-5.99
		c-2.58-2.22-3.97-4.65-4.12-7.29h42.51c2.03,0,3.5,0.19,4.39,0.57c0.82,0.35,1.35,0.98,1.63,1.91c0.3,1.03,0.46,2.71,0.46,4.99v0.5
		h2.52L55.29,115.97z"/>
	<path class="st0" d="M13.7,69.92c4.31,2.34,9.33,3.52,14.92,3.52c5.71,0,10.71-1.16,14.87-3.43c4.17-2.29,7.39-5.55,9.58-9.69
		c2.18-4.13,3.29-9.01,3.29-14.5c0-5.33-1.21-10.16-3.59-14.34c-2.38-4.18-5.79-7.49-10.11-9.84c-4.31-2.34-9.33-3.52-14.92-3.52
		c-5.71,0-10.71,1.16-14.87,3.43c-4.17,2.29-7.39,5.55-9.58,9.69C1.11,35.38,0,40.25,0,45.74C0,51.1,1.21,55.93,3.59,60.1
		C5.98,64.27,9.38,67.58,13.7,69.92z M2.36,46.03c0-2.09,1.03-4.04,3.06-5.81c2.09-1.82,5.11-3.28,9-4.36
		c3.92-1.08,8.5-1.63,13.61-1.63c5.1,0,9.68,0.49,13.63,1.44c3.91,0.95,7,2.31,9.17,4.03c2.13,1.7,3.17,3.6,3.17,5.83
		c0,2.09-1.03,4.04-3.06,5.81c-2.09,1.82-5.11,3.28-9,4.36c-3.91,1.08-8.49,1.63-13.61,1.63c-5.1,0-9.68-0.49-13.63-1.44
		c-3.91-0.95-7-2.31-9.17-4.03C3.4,50.16,2.36,48.25,2.36,46.03z"/>
</g>
<g>
	<path class="st0" d="M499.63,278.09c5,2.54,8.88,6.22,11.63,11.05c2.76,4.83,4.14,10.58,4.14,17.24c0,6.52-1.42,12.28-4.24,17.3
		c-2.83,5.02-6.77,8.91-11.83,11.68c-5.06,2.77-10.81,4.15-17.28,4.15c-6.66,0-12.5-1.27-17.49-3.81c-5-2.54-8.88-6.22-11.63-11.05
		c-2.76-4.83-4.14-10.58-4.14-17.24c0-6.52,1.41-12.28,4.24-17.3c2.83-5.02,6.76-8.91,11.8-11.68c5.04-2.77,10.81-4.15,17.3-4.15
		C488.8,274.28,494.63,275.55,499.63,278.09z M474.16,279.84c-2.18,2.64-3.87,6.32-5.06,11.03c-1.19,4.71-1.79,10.11-1.79,16.2
		c0,6.11,0.67,11.51,2.03,16.2c1.35,4.69,3.17,8.3,5.47,10.84c2.3,2.54,4.83,3.81,7.58,3.81c2.9,0,5.44-1.32,7.63-3.96
		c2.18-2.64,3.87-6.31,5.06-11.03c1.19-4.71,1.79-10.11,1.79-16.2c0-6.11-0.67-11.51-2.02-16.2c-1.35-4.69-3.17-8.3-5.47-10.83
		c-2.3-2.54-4.83-3.81-7.58-3.81C478.89,275.88,476.35,277.2,474.16,279.84z"/>
	<path class="st0" d="M551.25,275.8c8.64,0,14.79-0.09,18.44-0.26c-0.4,5.54-0.6,10.5-0.6,14.88c0,2.74,0.09,4.87,0.26,6.4h-2.03
		c-1.44-6.83-3.6-11.75-6.51-14.75c-2.9-3-6.15-4.5-9.74-4.5h-1.16c-1.61,0-2.77,0.13-3.49,0.39c-0.72,0.26-1.21,0.77-1.49,1.54
		c-0.27,0.76-0.41,1.98-0.41,3.65v22.66h0.9c2.1,0,3.99-0.59,5.67-1.77c1.68-1.18,3.07-2.67,4.16-4.46c1.09-1.79,1.82-3.6,2.2-5.45
		h2.02c-0.23,3.46-0.34,6.33-0.34,8.61l0.04,3.98c0,2.54,0.19,6.73,0.56,12.59h-2.02c-0.37-2.22-1.11-4.22-2.22-5.99
		c-1.11-1.77-2.52-3.17-4.24-4.2c-1.72-1.02-3.66-1.54-5.82-1.54h-0.9v20.37c0,2.48,0.25,4.29,0.75,5.43
		c0.5,1.14,1.42,1.9,2.76,2.27c1.33,0.38,3.44,0.56,6.31,0.56v2.03c-7.93-0.17-13.99-0.26-18.18-0.26c-0.98,0-6.25,0.09-15.81,0.26
		v-1.77c1.9-0.09,3.27-0.32,4.11-0.69c0.85-0.37,1.42-1.07,1.72-2.08c0.3-1.01,0.45-2.62,0.45-4.84v-43.95
		c0-2.22-0.16-3.83-0.47-4.84c-0.32-1.01-0.9-1.7-1.75-2.08c-0.85-0.37-2.21-0.61-4.07-0.69v-1.77
		C527.19,275.71,537.49,275.8,551.25,275.8z"/>
	<path class="st0" d="M604.89,275.8c8.64,0,14.79-0.09,18.44-0.26c-0.4,5.54-0.6,10.5-0.6,14.88c0,2.74,0.09,4.87,0.26,6.4h-2.03
		c-1.44-6.83-3.6-11.75-6.51-14.75c-2.9-3-6.15-4.5-9.74-4.5h-1.16c-1.61,0-2.77,0.13-3.49,0.39c-0.72,0.26-1.21,0.77-1.49,1.54
		c-0.27,0.76-0.41,1.98-0.41,3.65v22.66h0.9c2.1,0,3.99-0.59,5.67-1.77c1.68-1.18,3.07-2.67,4.16-4.46c1.09-1.79,1.82-3.6,2.2-5.45
		h2.02c-0.23,3.46-0.34,6.33-0.34,8.61l0.04,3.98c0,2.54,0.19,6.73,0.56,12.59h-2.02c-0.37-2.22-1.11-4.22-2.22-5.99
		c-1.11-1.77-2.52-3.17-4.24-4.2c-1.72-1.02-3.66-1.54-5.82-1.54h-0.9v20.37c0,2.48,0.25,4.29,0.75,5.43
		c0.5,1.14,1.42,1.9,2.76,2.27c1.33,0.38,3.44,0.56,6.31,0.56v2.03c-7.93-0.17-13.99-0.26-18.18-0.26c-0.98,0-6.25,0.09-15.81,0.26
		v-1.77c1.9-0.09,3.27-0.32,4.11-0.69c0.85-0.37,1.42-1.07,1.72-2.08c0.3-1.01,0.45-2.62,0.45-4.84v-43.95
		c0-2.22-0.16-3.83-0.47-4.84c-0.32-1.01-0.9-1.7-1.75-2.08c-0.85-0.37-2.2-0.61-4.07-0.69v-1.77
		C580.83,275.71,591.13,275.8,604.89,275.8z"/>
</g>
<path class="st0" d="M234.84,85.8c-14.52,28.48-26.04,56.13-34.59,82.94c-8.55,26.81-12.82,54.61-12.82,83.39
	c0.27,3.18,0.68,9.47,1.22,18.86c0.54,9.39,0.81,15.83,0.81,19.31c0,7.12-1.36,13.78-4.07,20c-2.71,6.21-6.92,11.25-12.61,15.11
	c-5.7,3.86-12.75,5.79-21.16,5.79c-12.62,0-22.08-4.47-28.38-13.41c-6.31-8.94-9.46-21.36-9.46-37.27
	c0-23.63,7.43-47.72,22.28-72.26c14.85-24.54,31.91-48.82,51.17-72.83c19.26-24.01,31.33-39.27,36.22-45.79H104.62
	c-7.6,0-13.26,0.57-16.99,1.7c-3.73,1.14-6.31,2.99-7.73,5.57c-1.42,2.58-2.54,6.52-3.36,11.82h-9.56c0-42.11-0.54-72.03-1.63-89.76
	c6.24,1.52,26.92,2.27,62.06,2.27H261.7v9.77C258.31,39.07,249.36,57.32,234.84,85.8z"/>
<g>
	<path class="st0" d="M508.92,73.19c-10.31-18.71-24.69-33.21-43.14-43.51c-18.45-10.3-39.47-15.45-63.08-15.45
		c-24.82,0-46.8,5.76-65.92,17.27c-19.13,11.51-33.95,27.19-44.46,47.04c-10.51,19.85-15.77,42.04-15.77,66.58
		s5.22,46.21,15.67,64.99c10.44,18.79,24.89,33.29,43.34,43.52c18.45,10.23,39.34,15.34,62.67,15.34c15.55,0,30-2.28,43.35-6.82
		l82.76-127.5C523.93,111.61,518.8,91.13,508.92,73.19z M440.96,203.74c-3.8,18.33-9.09,32.38-15.87,42.15
		c-6.79,9.77-14.52,14.66-23.2,14.66c-8.95,0-16.99-4.05-24.11-12.16c-7.12-8.1-12.79-20.91-16.99-38.4
		c-4.21-17.5-6.31-39.57-6.31-66.24c0-24.84,1.9-46.39,5.7-64.65c3.8-18.25,9.05-32.23,15.77-41.92
		c6.71-9.69,14.41-14.54,23.09-14.54c8.95,0,16.99,4.05,24.11,12.16c7.12,8.11,12.82,20.87,17.09,38.29
		c4.27,17.42,6.41,39.39,6.41,65.9C446.66,163.82,444.75,185.41,440.96,203.74z"/>
</g>
<g>
	<path class="st0" d="M521.84,64.11c4.2,2.18,9.04,3.27,14.53,3.27c5.28,0,10.02-1.18,14.21-3.56c4.2-2.37,7.5-5.71,9.9-10.01
		c2.4-4.3,3.6-9.27,3.6-14.89c0-5.74-1.16-10.67-3.48-14.81c-2.32-4.14-5.57-7.31-9.74-9.51c-4.17-2.21-9-3.31-14.49-3.31
		c-5.28,0-10.03,1.2-14.25,3.6c-4.22,2.4-7.55,5.76-9.98,10.09c-2.43,4.33-3.64,9.28-3.64,14.85c0,5.68,1.17,10.6,3.52,14.77
		C514.37,58.76,517.64,61.94,521.84,64.11z M536.06,14.35c3.11,0,5.52,2.11,7.21,6.33c1.69,4.22,2.53,10.41,2.53,18.57
		c0,16.71-3.04,25.07-9.11,25.07c-3.12,0-5.54-2.1-7.29-6.29c-1.74-4.19-2.61-10.34-2.61-18.45
		C526.79,22.76,529.88,14.35,536.06,14.35z"/>
	<path class="st0" d="M611.21,99.4c-2.32-4.14-5.57-7.31-9.74-9.51c-4.17-2.21-9-3.31-14.49-3.31c-5.28,0-10.03,1.2-14.25,3.6
		c-4.22,2.4-7.55,5.75-9.98,10.05c-2.43,4.3-3.64,9.24-3.64,14.81c0,5.74,1.17,10.67,3.52,14.81c2.35,4.14,5.62,7.31,9.82,9.51
		c4.2,2.21,9.04,3.31,14.53,3.31c5.23,0,9.95-1.19,14.17-3.56c4.22-2.37,7.54-5.72,9.94-10.05c2.4-4.33,3.6-9.28,3.6-14.85
		C614.69,108.47,613.53,103.54,611.21,99.4z M587.29,139.61c-3.12,0-5.54-2.11-7.29-6.33c-1.74-4.22-2.61-10.35-2.61-18.41
		c0-16.82,3.09-25.23,9.27-25.23c3.11,0,5.52,2.11,7.21,6.33c1.69,4.22,2.53,10.41,2.53,18.57
		C596.4,131.25,593.36,139.61,587.29,139.61z"/>
	<polygon class="st0" points="611.63,2.72 607.88,0 395.01,328.7 398.76,331.42 611.42,3.04 	"/>
</g>
</svg>
